<mxfile modified="2022-09-15T03:06:43.368Z" host="app.diagrams.net" agent="5.0 (X11; Linux x86_64) AppleWebKit/537.36 (KHTML, like Gecko) Chrome/102.0.0.0 Safari/537.36" etag="jiPzMO1t0pD0lzuNq8aH" version="20.2.5" type="github">
  <diagram id="Ht1M8jgEwFfnCIfOTk4-" name="Page-1">
    <mxGraphModel dx="931" dy="533" grid="1" gridSize="10" guides="1" tooltips="1" connect="1" arrows="1" fold="1" page="1" pageScale="1" pageWidth="1169" pageHeight="827" math="0" shadow="0">
      <root>
        <mxCell id="0" />
        <mxCell id="1" parent="0" />
        <mxCell id="R-IXnLzLf4_tJUkMW1ok-7" value="AWS Cloud" style="points=[[0,0],[0.25,0],[0.5,0],[0.75,0],[1,0],[1,0.25],[1,0.5],[1,0.75],[1,1],[0.75,1],[0.5,1],[0.25,1],[0,1],[0,0.75],[0,0.5],[0,0.25]];outlineConnect=0;gradientColor=none;html=1;whiteSpace=wrap;fontSize=12;fontStyle=0;container=1;pointerEvents=0;collapsible=0;recursiveResize=0;shape=mxgraph.aws4.group;grIcon=mxgraph.aws4.group_aws_cloud_alt;strokeColor=#232F3E;fillColor=none;verticalAlign=top;align=left;spacingLeft=30;fontColor=#232F3E;dashed=0;" vertex="1" parent="1">
          <mxGeometry x="400" y="190" width="290" height="350" as="geometry" />
        </mxCell>
        <mxCell id="R-IXnLzLf4_tJUkMW1ok-23" style="edgeStyle=orthogonalEdgeStyle;rounded=0;orthogonalLoop=1;jettySize=auto;html=1;" edge="1" parent="R-IXnLzLf4_tJUkMW1ok-7" source="UEzPUAAOIrF-is8g5C7q-114" target="R-IXnLzLf4_tJUkMW1ok-8">
          <mxGeometry relative="1" as="geometry" />
        </mxCell>
        <mxCell id="UEzPUAAOIrF-is8g5C7q-114" value="Amazon API&lt;br&gt;Gateway&lt;br&gt;" style="outlineConnect=0;fontColor=#232F3E;gradientColor=#945DF2;gradientDirection=north;fillColor=#5A30B5;strokeColor=#ffffff;dashed=0;verticalLabelPosition=bottom;verticalAlign=top;align=center;html=1;fontSize=12;fontStyle=0;aspect=fixed;shape=mxgraph.aws4.resourceIcon;resIcon=mxgraph.aws4.api_gateway;labelBackgroundColor=#ffffff;" parent="R-IXnLzLf4_tJUkMW1ok-7" vertex="1">
          <mxGeometry x="20" y="130" width="78" height="78" as="geometry" />
        </mxCell>
        <mxCell id="UEzPUAAOIrF-is8g5C7q-119" value="Amazon&lt;br&gt;DynamoDB&lt;br&gt;" style="outlineConnect=0;fontColor=#232F3E;gradientColor=#4D72F3;gradientDirection=north;fillColor=#3334B9;strokeColor=#ffffff;dashed=0;verticalLabelPosition=bottom;verticalAlign=top;align=center;html=1;fontSize=12;fontStyle=0;aspect=fixed;shape=mxgraph.aws4.resourceIcon;resIcon=mxgraph.aws4.dynamodb;labelBackgroundColor=#ffffff;spacingTop=5;" parent="R-IXnLzLf4_tJUkMW1ok-7" vertex="1">
          <mxGeometry x="160.00000000000023" y="210" width="78" height="78" as="geometry" />
        </mxCell>
        <mxCell id="R-IXnLzLf4_tJUkMW1ok-8" value="" style="sketch=0;points=[[0,0,0],[0.25,0,0],[0.5,0,0],[0.75,0,0],[1,0,0],[0,1,0],[0.25,1,0],[0.5,1,0],[0.75,1,0],[1,1,0],[0,0.25,0],[0,0.5,0],[0,0.75,0],[1,0.25,0],[1,0.5,0],[1,0.75,0]];outlineConnect=0;fontColor=#232F3E;gradientColor=#F78E04;gradientDirection=north;fillColor=#D05C17;strokeColor=#ffffff;dashed=0;verticalLabelPosition=bottom;verticalAlign=top;align=center;html=1;fontSize=12;fontStyle=0;aspect=fixed;shape=mxgraph.aws4.resourceIcon;resIcon=mxgraph.aws4.ecs;" vertex="1" parent="R-IXnLzLf4_tJUkMW1ok-7">
          <mxGeometry x="160.00000000000023" y="52" width="78" height="78" as="geometry" />
        </mxCell>
        <mxCell id="R-IXnLzLf4_tJUkMW1ok-24" style="edgeStyle=orthogonalEdgeStyle;rounded=0;orthogonalLoop=1;jettySize=auto;html=1;" edge="1" parent="R-IXnLzLf4_tJUkMW1ok-7" source="R-IXnLzLf4_tJUkMW1ok-10" target="UEzPUAAOIrF-is8g5C7q-119">
          <mxGeometry relative="1" as="geometry" />
        </mxCell>
        <mxCell id="R-IXnLzLf4_tJUkMW1ok-10" value="Promise" style="whiteSpace=wrap;html=1;fillColor=none;strokeColor=none;" vertex="1" parent="R-IXnLzLf4_tJUkMW1ok-7">
          <mxGeometry x="159.00000000000023" y="130" width="80" height="20" as="geometry" />
        </mxCell>
        <mxCell id="R-IXnLzLf4_tJUkMW1ok-28" value="REST API-3" style="whiteSpace=wrap;html=1;fillColor=#d5e8d4;strokeColor=#82b366;" vertex="1" parent="R-IXnLzLf4_tJUkMW1ok-7">
          <mxGeometry x="202.00000000000023" y="170" width="80" height="20" as="geometry" />
        </mxCell>
        <mxCell id="R-IXnLzLf4_tJUkMW1ok-5" value="OMS" style="ellipse;shape=cloud;whiteSpace=wrap;html=1;" vertex="1" parent="1">
          <mxGeometry x="180" y="220" width="120" height="80" as="geometry" />
        </mxCell>
        <mxCell id="R-IXnLzLf4_tJUkMW1ok-6" value="SFCC" style="ellipse;shape=cloud;whiteSpace=wrap;html=1;" vertex="1" parent="1">
          <mxGeometry x="170" y="430" width="120" height="80" as="geometry" />
        </mxCell>
        <mxCell id="R-IXnLzLf4_tJUkMW1ok-9" value="Shipium" style="ellipse;shape=cloud;whiteSpace=wrap;html=1;" vertex="1" parent="1">
          <mxGeometry x="726" y="325" width="120" height="80" as="geometry" />
        </mxCell>
        <mxCell id="R-IXnLzLf4_tJUkMW1ok-21" value="" style="endArrow=classic;html=1;rounded=0;exitX=0.55;exitY=0.95;exitDx=0;exitDy=0;exitPerimeter=0;" edge="1" parent="1" source="R-IXnLzLf4_tJUkMW1ok-5" target="UEzPUAAOIrF-is8g5C7q-114">
          <mxGeometry width="50" height="50" relative="1" as="geometry">
            <mxPoint x="326" y="360" as="sourcePoint" />
            <mxPoint x="376" y="310" as="targetPoint" />
            <Array as="points">
              <mxPoint x="246" y="359" />
            </Array>
          </mxGeometry>
        </mxCell>
        <mxCell id="R-IXnLzLf4_tJUkMW1ok-22" value="" style="endArrow=classic;html=1;rounded=0;exitX=0.625;exitY=0.2;exitDx=0;exitDy=0;exitPerimeter=0;" edge="1" parent="1" source="R-IXnLzLf4_tJUkMW1ok-6">
          <mxGeometry width="50" height="50" relative="1" as="geometry">
            <mxPoint x="256" y="306" as="sourcePoint" />
            <mxPoint x="420" y="369" as="targetPoint" />
            <Array as="points">
              <mxPoint x="245" y="369" />
            </Array>
          </mxGeometry>
        </mxCell>
        <mxCell id="R-IXnLzLf4_tJUkMW1ok-25" style="edgeStyle=orthogonalEdgeStyle;rounded=0;orthogonalLoop=1;jettySize=auto;html=1;" edge="1" parent="1" source="R-IXnLzLf4_tJUkMW1ok-8" target="R-IXnLzLf4_tJUkMW1ok-9">
          <mxGeometry relative="1" as="geometry" />
        </mxCell>
        <mxCell id="R-IXnLzLf4_tJUkMW1ok-26" value="REST API-1" style="whiteSpace=wrap;html=1;fillColor=#d5e8d4;strokeColor=#82b366;" vertex="1" parent="1">
          <mxGeometry x="260.0000000000002" y="330" width="80" height="20" as="geometry" />
        </mxCell>
        <mxCell id="R-IXnLzLf4_tJUkMW1ok-27" value="REST API-2" style="whiteSpace=wrap;html=1;fillColor=#d5e8d4;strokeColor=#82b366;" vertex="1" parent="1">
          <mxGeometry x="262.0000000000002" y="370" width="80" height="20" as="geometry" />
        </mxCell>
        <mxCell id="R-IXnLzLf4_tJUkMW1ok-29" value="REST API-4" style="whiteSpace=wrap;html=1;fillColor=#d5e8d4;strokeColor=#82b366;" vertex="1" parent="1">
          <mxGeometry x="710.0000000000002" y="260" width="80" height="20" as="geometry" />
        </mxCell>
      </root>
    </mxGraphModel>
  </diagram>
</mxfile>
